<!-- icon666.com - MILLIONS vector ICONS FREE --><svg viewBox="0 0 512 512" xmlns="http://www.w3.org/2000/svg"><path d="m255 90c-90.980469 0-165 74.019531-165 165s74.019531 165 165 165 165-74.019531 165-165-74.019531-165-165-165zm0 0"></path><path d="m240 0h30v60h-30zm0 0"></path><path d="m240 452h30v60h-30zm0 0"></path><path d="m170.492188 78.617188-30-51.957032-25.984376 15 30 51.957032zm0 0"></path><path d="m339.507812 431.382812 30 51.957032 25.984376-15-30-51.957032zm0 0"></path><path d="m93.617188 144.507812-51.957032-30-15 25.984376 51.957032 30zm0 0"></path><path d="m416.382812 365.492188 51.957032 30 15-25.984376-51.957032-30zm0 0"></path><path d="m0 240h60v30h-60zm0 0"></path><path d="m452 240h60v30h-60zm0 0"></path><path d="m26.660156 369.507812 15 25.984376 51.957032-30-15-25.984376zm0 0"></path><path d="m483.339844 140.492188-15-25.984376-51.957032 30 15 25.984376zm0 0"></path><path d="m114.507812 468.339844 25.984376 15 30-51.957032-25.984376-15zm0 0"></path><path d="m395.492188 41.660156-25.984376-15-30 51.957032 25.984376 15zm0 0"></path></svg>