<!-- icon666.com - MILLIONS vector ICONS FREE --><svg id="Layer_1" enable-background="new 0 0 53 53" viewBox="0 0 53 53" xmlns="http://www.w3.org/2000/svg"><g id="_x31_2"><g><g><path d="m33.4610138 37.7266273h-13.9263344c-1.4741554 0-2.6181087-1.2863312-2.4459724-2.7504044l2.0523376-16.6917896c.1532478-1.2463779 1.2118664-2.182806 2.4676304-2.182806h9.7783432c1.2557621 0 2.3143826.9364281 2.4676304 2.182806l2.0523376 16.6917896c.1721344 1.4640733-.971817 2.7504044-2.4459724 2.7504044z" fill="#65b9ff"></path></g></g><g><g><g><g><path d="m30.9338379 17.3391018c.0499878.1000366.0900269.2000122.1099854.2800293.0900269.3200073.1400146.6499634.2000122 1 .0300293.1999512.0599976.3999634.1000366.5999756.1999512 1.0499878.6099854 2.0300293 1.0099487 2.9799805.2000122.4800415.4100342.960022.5800171 1.4500122.4199829 1.1600342.6799927 2.4100342.9299927 3.6199951l.25 1.1900024v-4.4099731c-.0700073-.25-.1499634-.5-.2399902-.7399902-.1799927-.5100098-.3900146-1-.5999756-1.5-.4000244-.9400024-.7700195-1.8300171-.9500122-2.7800293-.039978-.1799927-.0599976-.3699951-.0900269-.5499878-.0599976-.3800049-.1199951-.75-.2299805-1.1400146h-1.0700073z" fill="#5b5e8b"></path></g></g></g><g><g><path d="m36.7528191 20.7066078v3.1500244l-2.4899902-.0200195v15.8800049h-15.5299664v-15.8800049l-2.4899902.0200195v-3.1500244c0-.8300171.3699951-1.6199951 1-2.1500244l.7199707-.5899658c.5-.4100342 1.1300049-.6400146 1.7800293-.6400146h13.5199566c.6500244 0 1.2800293.2299805 1.7800293.6400146l.7099609.5899658c.6400146.5300293 1 1.3200073 1 2.1500244z" fill="#deddff"></path></g></g><g><g><path d="m34.2628288 39.7166176v10.789978h-6.8899517v-4.3399658c0-.4800415-.3900146-.8800049-.8700562-.8800049-.4899902 0-.8799438.3999634-.8799438.8800049v4.3399658h-6.8900146v-10.789978z" fill="#5b5e8b"></path></g></g><g><g><path d="m18.733 39.717h1.5v10.79h-1.5z" fill="#312e4b"></path></g></g><g><g><g><g><g><path d="m27.1143837 23.4972229.4690266 3.9502411-1.1271782 3.1615505-1.1423207-3.1814136.4765988-3.930378-.8221264-1.7757492 1.4802761-1.107439 1.5500088 1.1541099z" fill="#e83d62"></path></g></g><g><g><path d="m31.1804008 17.3122501-1.5659599 4.0865955c-.2042694.5357723-.9834404.7475567-1.535717.4174099l-.2798996-.168211-1.3465462-.8160725-.0075721-.006235-1.3541183.8223076-.2799473.168211c-.5522289.3301468-1.3313999.1183624-1.5356693-.4174099l-.1966972-.523262-1.3692627-3.5633335v-.0062352h.0075722v.0062351z" fill="#c6c6f7"></path></g></g></g><g><g><g><g><g><g><g><g><path d="m28.9506836 15.3562241v2.0071468c0 1.3864269-1.127739 2.5089874-2.5037785 2.5089874-.6983929 0-1.3191738-.2793694-1.7744122-.7345753-.4603863-.4552383-.7345772-1.0811996-.7345772-1.7744122v-2.0071468h5.0127679z" fill="#ffaf93"></path></g></g><g><g><path d="m25.45364 19.1222477.0155354.0155354c.3672714.3672714.8380451.6207504 1.3760395.6983604-.1293278.0258579-.2638359.0362148-.3983097.0362148-.6983929 0-1.3191738-.2793694-1.7744122-.7345753-.4603863-.4552383-.7345772-1.0811996-.7345772-1.7744122v-1.2156734c.7190742.4707413 1.5829773.7449322 2.5089893.7449322.2275867 0 .4500599-.0155354.6673222-.0465717-1.0035896-.1448326-1.898531-.6156044-2.5813885-1.2984304-.0931129-.0931444-.1862564-.1914034-.2690125-.2948723h4.6868572v1.6915922c-.7501106.3983421-1.5984802.6207829-2.5037785.6207829-.0879669 0-.170723 0-.2535095-.0051785-.8328685-.0413628-1.3243216.9725513-.7397555 1.5622959z" fill="#ee8778"></path></g></g><g><g><path d="m31.0374298 6.8862057v5.4148798c0 2.5364895-2.0562305 4.5927191-4.59272 4.5927191h-.0000095c-2.5364876 0-4.5927181-2.0562296-4.5927181-4.5927191v-5.4148798z" fill="#ffaf93"></path></g></g><g><g><path d="m31.035471 6.8839765v5.4149079c0 .1448631-.0051785.2896938-.0207119.4293785-.0155029.2017603-.0517197.3983107-.0982914.5948915-.4603844 2.0485725-2.2865162 3.5694752-4.4695625 3.5694752-1.2674236 0-2.4158764-.5121365-3.2487431-1.3450022-.8328667-.8328991-1.3450012-1.9813194-1.3450012-3.2487431v-5.4149078z" fill="#ffaf93"></path></g></g><g><g><path d="m32.0143394 3.9172885v7.4040015h-.979311v-3.7405233c0-.3835955-.3109665-.694561-.694561-.694561h-6.3872414c-1.1599503 0-2.1002731.9403238-2.1002731 2.1002731v2.3348112h-1.007122v-7.4040015z" fill="#8b4f4f"></path></g></g><g><g><path d="m32.6528244 11.1202698c0 .9003601-.7221184 1.6224222-1.6224232 1.6224222v-3.2359219c.9003048 0 1.6224232.7220621 1.6224232 1.6134997z" fill="#ffaf93"></path></g></g><g><g><path d="m31.4632931 9.5717907c-.1385174-.0380783-.2817383-.065011-.4328842-.065011v3.2359228c.1511459 0 .2943668-.0269642.4328842-.065074z" fill="#ee8778"></path></g></g></g><g><g><path d="m27.1142273 16.8460579c-.2172623.0310364-.4397354.0465717-.6673222.0465717-.926012 0-1.7899151-.2741909-2.5089893-.7449322-.2690125-.1759014-.5121346-.3724508-.7397537-.60007-.8328667-.8328991-1.3450012-1.9813194-1.3450012-3.2487431v.4448824c-.9001522 0-1.6243725-.7242203-1.6243725-1.6243401 0-.512167.2379436-.9674053.6156044-1.2674236.2793388-.2172947.6259289-.3466234 1.0087681-.3466234v-.593544c0-.8483696.5586758-1.5674424 1.3346443-1.8105965v5.1976452c0 1.1225615.4035206 2.1520414 1.0760212 2.9538708.082756.1034689.1758995.2017279.2690125.2948723.6828574.6828261 1.5777988 1.1535979 2.5813884 1.2984305z" fill="#ee8778"></path></g></g><g><g><g><g><path d="m26.8079815 11.6824722v.6558285c0 .22264-.1802521.4028893-.4028893.4028893-.222641 0-.4028912-.1802492-.4028912-.4028893v-.6558285c0-.2226381.1802502-.4028893.4028912-.4028893.2248879.0000001.4028893.1830808.4028893.4028893z" fill="#ee8778"></path></g></g></g><g><g><path d="m25.0060024 14.0814886c.1437263.6609316.7313805 1.1561956 1.4353695 1.1561794.7039967-.0000162 1.2916431-.4953079 1.4353695-1.1562452z" fill="#ee8778"></path></g></g></g></g><g><g><g><path d="m25.1441956 10.0685205c-.0926991-.4262781-.4717178-.7457132-.9257698-.7457132-.4540558 0-.8330708.3194351-.9257698.7457132z" fill="#312e4b"></path></g></g><g><g><path d="m29.5959435 10.0685205c-.0926991-.4262781-.4717178-.7457132-.9257698-.7457132-.4540558 0-.8330708.3194351-.9257698.7457132z" fill="#312e4b"></path></g></g></g></g><g><g><path d="m33.0770378 4.9591298v.0069103c0 1.3613548-1.1043701 2.4657249-2.4726334 2.4657249h-9.7585735v-3.5492384c0-.7640002.6251221-1.389122 1.389122-1.389122h8.3694515c1.3682633 0 2.4726334 1.1043706 2.4726334 2.4657252z" fill="#ab604b"></path></g></g><g><g><path d="m23.2411842 2.4934046h-1.0062313c-.7639999 0-1.389122.6251218-1.389122 1.389122v3.5492384h2.3953533z" fill="#8b4f4f"></path></g></g></g></g></g></g></g><g><g><g><path d="m30.6082821 38.1894913c.8291435 0 1.5012989-.6721535 1.5012989-1.5013008v-7.8698273c0-.0276165 0-.055212-.0034561-.0793724-.0414543-.793787-.6971607-1.4219189-1.4978771-1.4219189h-7.9554195c-.82827 0-1.5013332-.6730003-1.5013332-1.5013123v10.8724422c0 .8291397.6721516 1.5012894 1.5012913 1.5012894h7.9554957z" fill="#46cc6b"></path></g></g><g><g><path d="m23.2167835 38.1895027h-.5639687c-.8291645 0-1.5013351-.6721535-1.5013351-1.501297v-10.8724327c0 .8282986.6730747 1.501297 1.5013351 1.501297h.5639687z" fill="#179c5f"></path></g></g><g><g><path d="m32.109581 28.7389908v-2.9266777c0-.8291435-.6721554-1.5012989-1.5012989-1.5012989h-7.9554539c-.8291626 0-1.5013332.6721706-1.5013332 1.5013332v.0034122c0 .8291512.6721611 1.5013123 1.5013123 1.5013123h7.9554405c.8007164 0 1.4564228.6281319 1.4978771 1.4219189z" fill="#a6b0fa"></path></g></g><g><g><path d="m32.1085434 28.7398319v-2.9268436c0-.8296337-.6723232-1.5019741-1.4988499-1.5019741h-7.9583111c-.8265266 0-1.498848.6723404-1.498848 1.5019741v.0030861c0 .8296337.6723213 1.5019741 1.498848 1.5019741h7.9583111c.7988186 0 1.4557018.6260891 1.4958363 1.4217834z" fill="#179c5f"></path></g></g><g><g><path d="m23.2167835 27.3180485h-.5654011c-.8265266 0-1.498848-.6723404-1.498848-1.5019741v-.0030861c0-.8296337.6723213-1.5019741 1.498848-1.5019741h.5654011z" fill="#179c5f"></path></g></g><g><g><path d="m32.1085434 28.9896469v-2.7973118c0-.6472626-.5247116-1.1719723-1.1719742-1.1719723h-8.2851868c-.4348354 0-.7895565.3546829-.7895565.7926254s.3547211.7957115.7895565.7957115h8.2851868c.6472626 0 1.1719742.5247116 1.1719742 1.1719742z" fill="#c6c6f7"></path></g></g><g><g><path d="m31.2779236 25.8170681c0-.1065483-.0857086-.189703-.1896896-.189703h-8.3170872c-.1039162 0-.1896877.0831547-.1896877.189703 0 .1039314.0857716.187088.1896877.187088h8.3170872c.103981 0 .1896896-.0831566.1896896-.187088z" fill="#b5b5ea"></path></g></g></g></g><g><g><g><g><path d="m21.7028332 17.3266029-1.1499634 7.6400146c-.4800415 3.210022-.9800415 6.5299683-1.8200073 9.7399902v-4.7000122c.3099976-1.7299805.5700073-3.4699707.8299561-5.1799927l1.1300049-7.5h1.0100097z" fill="#5b5e8b"></path></g></g></g><g><g><g><g><path d="m19.4137383 17.3391018v13.2650108c0 .9777546-.794426 1.7722416-1.7722435 1.7722416-.9676228 0-1.7620478-.794487-1.7620478-1.7722416v-9.7307186c0-1.9555721 1.5787191-3.5342922 3.5342913-3.5342922z" fill="#b5b5ea"></path></g></g><g><g><path d="m21.8151665 34.4762192-4.9082603-2.2426109c-.8871975-.4109554-1.2742004-1.4657307-.8632183-2.3529854.4066963-.8780041 1.4615021-1.264925 2.3487015-.8539677l4.869278 2.2245541z" fill="#b5b5ea"></path></g></g></g></g><g><g><circle cx="21.91" cy="32.721" fill="#ffaf93" r="2.228"></circle></g></g><g><g><path d="m22.9416199 34.681263c-.3976479.2156258-.8502731.3008423-1.3148937.2407761-1.2222786-.1580162-2.0842113-1.2759018-1.9261932-2.4981804.1488667-1.1515007 1.1705894-1.9848061 2.3237991-1.9281769-.6152954.3107243-1.0752239.9290638-1.1718674 1.6766129-.1580105 1.2222176.7039146 2.3401642 1.9261932 2.4981804.0504952.0065269.1110993.0143622.162962.0107879z" fill="#ee8778"></path></g></g></g><g><g><g><g><path d="m31.2971668 17.3266029 1.1499653 7.6400146c.4800415 3.210022.9800415 6.5299683 1.8200073 9.7399902v-4.7000122c-.3099976-1.7299805-.5700073-3.4699707-.8299561-5.1799927l-1.1300049-7.5h-1.0100116z" fill="#5b5e8b"></path></g></g></g><g><g><g><g><path d="m33.5862617 17.3391018v13.2650108c0 .9777546.794426 1.7722416 1.7722435 1.7722416.9676208 0 1.7620468-.794487 1.7620468-1.7722416v-9.7307186c.0000001-1.9555721-1.5787162-3.5342922-3.5342903-3.5342922z" fill="#b5b5ea"></path></g></g><g><g><path d="m31.1848335 34.4762192 4.9082603-2.2426109c.8871956-.4109554 1.2742004-1.4657307.8632202-2.3529854-.4066963-.8780041-1.4615059-1.264925-2.3487015-.8539677l-4.8692799 2.2245541z" fill="#b5b5ea"></path></g></g></g></g><g><g><circle cx="31.09" cy="32.721" fill="#ffaf93" r="2.228"></circle></g></g><g><g><path d="m30.0583801 34.681263c.3976479.2156258.8502731.3008423 1.3148937.2407761 1.2222805-.1580162 2.0842113-1.2759018 1.9261951-2.4981804-.1488686-1.1515007-1.1705933-1.9848061-2.323801-1.9281769.6152954.3107243 1.0752239.9290638 1.1718693 1.6766129.1580086 1.2222176-.7039165 2.3401642-1.9261951 2.4981804-.0504952.0065269-.1110993.0143622-.162962.0107879z" fill="#ee8778"></path></g></g></g></g></svg>