<!-- icon666.com - MILLIONS vector ICONS FREE --><svg version="1.1" id="Capa_1" xmlns="http://www.w3.org/2000/svg" xmlns:xlink="http://www.w3.org/1999/xlink" x="0px" y="0px" viewBox="0 0 512 512" style="enable-background:new 0 0 512 512;" xml:space="preserve"><path style="fill:#FFCC00;" d="M358.355,71.648V30.706h-40.942v20.471h-40.942V10.235h-40.942v40.942h-40.942V30.706h-40.942v40.942 h-40.942v81.884h13.06c4.442,0,8.659,1.904,11.484,5.363c3.337,4.115,8.946,10.215,16.397,16.848 c9.969,8.905,23.583,18.67,40.942,26.326c11.914,5.241,25.568,9.314,40.942,11.341c6.551,0.86,13.265,1.535,20.471,1.535 s13.92-0.676,20.471-1.535c15.374-2.027,29.028-6.1,40.942-11.341c17.359-7.656,30.973-17.421,40.942-26.326 c7.451-6.633,13.061-12.733,16.397-16.848c2.825-3.46,7.042-5.363,11.484-5.363h13.06V71.648H358.355z"></path><path style="fill:#FF2C55;" d="M256,214.945c66.961,0,106.552-41.085,118.752-56.05c2.825-3.46,7.022-5.363,11.484-5.363h22.702 c5.875,0,10.543,4.954,10.215,10.809l-18.301,318.16c-0.757,12.938-13.101,21.822-25.671,18.588 c-22.191-5.752-60.656-20.021-119.182-20.021s-96.992,14.268-119.182,20.021c-12.569,3.234-24.913-5.65-25.671-18.588 l-18.301-318.16c-0.328-5.855,4.34-10.809,10.215-10.809h22.702c4.463,0,8.659,1.904,11.484,5.363 C149.448,173.86,189.039,214.945,256,214.945"></path><path d="M386.482,489.523c-2.497,1.822-5.691,2.457-8.741,1.638c-3.521-0.901-7.431-2.047-11.812-3.275 c-23.664-6.796-59.427-17.052-109.929-17.052s-86.265,10.256-109.929,17.052c-4.381,1.228-8.291,2.375-11.812,3.275 c-3.03,0.86-6.244,0.205-8.741-1.638c-1.453-1.044-3.91-3.439-4.156-7.595l-4.115-71.567 c29.376-10.317,75.518-21.413,138.752-21.413c63.214,0,109.377,11.095,138.752,21.413l-4.115,71.546 C390.392,486.084,387.936,488.479,386.482,489.523L386.482,489.523z M122.939,81.884h20.471v68.598 c-0.205-0.205-0.471-0.266-0.676-0.45c-2.088-1.945-4.422-3.521-7.022-4.647c-0.389-0.143-0.778-0.225-1.187-0.389 c-2.764-1.024-5.711-1.699-8.762-1.699h-2.825V81.884z M163.881,40.942h20.471v10.235v134.228 c-7.226-4.197-14.084-8.987-20.471-14.35V71.648V40.942z M225.294,61.413v139.735c-0.553-0.123-1.105-0.246-1.638-0.348 c-6.1-1.413-12.057-3.132-17.81-5.282c-0.348-0.123-0.676-0.246-1.024-0.389V61.413H225.294z M245.765,20.471h20.471v30.706v152.796 c-1.31,0.082-2.6,0.225-3.93,0.266c-4.197,0.225-8.414,0.225-12.61,0c-1.331-0.041-2.62-0.184-3.93-0.266V51.177L245.765,20.471 L245.765,20.471z M307.177,61.413V195.13c-0.328,0.143-0.676,0.266-1.003,0.389c-5.773,2.129-11.73,3.869-17.83,5.282 c-0.532,0.102-1.105,0.225-1.638,0.348V61.413H307.177z M327.648,40.942h20.471v30.706v99.407 c-6.407,5.363-13.245,10.154-20.471,14.35V51.177V40.942z M389.061,81.884v61.413h-2.825c-3.05,0-5.978,0.676-8.762,1.699 c-0.409,0.164-0.798,0.246-1.208,0.409c-2.559,1.105-4.872,2.682-6.96,4.585c-0.225,0.205-0.512,0.287-0.716,0.491V81.884H389.061z M103.061,163.768h9.642h13.06c1.453,0,2.702,0.573,3.541,1.576c1.105,1.351,2.886,3.419,5.118,5.814 c1.679,1.883,3.644,3.869,5.732,5.937c0.246,0.266,0.471,0.491,0.737,0.716c17.564,17.4,48.598,40.103,93.941,45.814 c6.018,0.778,13.142,1.556,21.167,1.556s15.149-0.778,21.167-1.556c45.323-5.711,76.336-28.373,93.9-45.753 c0.307-0.266,0.553-0.532,0.839-0.819c2.088-2.068,4.033-4.033,5.711-5.916c1.965-2.129,3.541-3.951,4.626-5.282 c0.123-0.123,0.307-0.328,0.409-0.471c0.86-1.044,2.129-1.617,3.582-1.617h13.06h9.642l-12.958,225.324 c-31.136-10.256-77.892-20.614-139.981-20.614s-108.844,10.358-139.981,20.614L103.061,163.768z M423.821,149.704 c-3.705-3.91-8.884-6.121-14.289-6.285V71.648c0-5.65-4.586-10.235-10.236-10.235H368.59V30.706c0-5.65-4.586-10.235-10.236-10.235 h-40.942c-5.65,0-10.236,4.586-10.236,10.235v10.235h-20.471V10.235c0-5.65-4.586-10.235-10.236-10.235h-40.942 c-5.65,0-10.235,4.586-10.235,10.235v30.706h-20.471V30.706c0-5.65-4.586-10.235-10.236-10.235h-40.942 c-5.65,0-10.235,4.586-10.235,10.235v30.706h-30.706c-5.65,0-10.235,4.586-10.235,10.235v71.771 c-5.404,0.164-10.583,2.375-14.289,6.285c-3.849,4.094-5.855,9.642-5.548,15.23l18.301,318.181 c0.532,9.191,5.097,17.544,12.508,22.968c7.492,5.445,16.95,7.226,25.937,4.913c3.664-0.962,7.779-2.149,12.324-3.439 c22.579-6.489,56.684-16.254,104.3-16.254s81.72,9.765,104.3,16.254c4.545,1.29,8.659,2.477,12.324,3.439 c2.579,0.655,5.2,0.983,7.799,0.983c6.469,0,12.794-2.027,18.137-5.896c7.41-5.425,11.976-13.777,12.508-22.989l18.301-318.14 C429.676,159.346,427.67,153.799,423.821,149.704L423.821,149.704z"></path><path style="opacity:0.24;enable-background:new ;" d="M407.178,446.964c-3.562-1.883-7.84-1.515-11.013,0.921 c-1.801,1.372-5.589,3.541-10.665,2.293c-3.746-0.901-7.943-2.027-12.631-3.296c-25.159-6.755-63.214-16.991-116.869-16.991 s-91.69,10.235-116.869,16.991c-4.667,1.269-8.864,2.395-12.631,3.296c-5.077,1.228-8.864-0.921-10.645-2.293 c-3.193-2.436-7.513-2.805-11.034-0.921c-3.521,1.863-5.65,5.609-5.425,9.621l1.515,26.53c0.553,9.191,5.118,17.564,12.528,22.968 c7.472,5.425,16.93,7.206,25.937,4.913c3.685-0.962,7.799-2.149,12.344-3.439c22.559-6.469,56.664-16.254,104.279-16.254 s81.72,9.785,104.279,16.254c4.565,1.29,8.68,2.477,12.364,3.439c2.559,0.655,5.179,1.003,7.779,1.003 c6.489,0,12.794-2.047,18.137-5.916c7.41-5.404,11.975-13.777,12.528-22.989l1.535-26.51 C412.828,452.573,410.72,448.827,407.178,446.964"></path></svg>