<!-- icon666.com - MILLIONS vector ICONS FREE --><svg version="1.1" id="Capa_1" xmlns="http://www.w3.org/2000/svg" xmlns:xlink="http://www.w3.org/1999/xlink" x="0px" y="0px" viewBox="0 0 418.249 418.249" style="enable-background:new 0 0 418.249 418.249;" xml:space="preserve"><g><g><path d="M299.87,58.936c0-6.26-5.072-11.334-11.332-11.334h-51.816c-3.881-12.309-14.584-21.621-27.656-23.467 C204.827,10.183,191.842,0,176.524,0h-27.201c-15.318,0-28.303,10.183-32.539,24.135c-13.074,1.846-23.775,11.158-27.658,23.467 H37.311c-6.262,0-11.334,5.074-11.334,11.334v347.978c0,6.26,5.072,11.334,11.334,11.334h126.342 c-0.639-2.31-0.986-4.738-0.986-7.248V135.383c0-15.025,12.224-27.249,27.248-27.249H299.87V58.936L299.87,58.936z M215.625,72.535H110.221V57.803c0-6.26,5.074-11.334,11.334-11.334h16.436V34.002c0-6.26,5.072-11.334,11.332-11.334h27.201 c6.258,0,11.334,5.074,11.334,11.334v12.467h16.434c6.258,0,11.333,5.074,11.333,11.334V72.535L215.625,72.535z"></path><path d="M385.209,135.6H198.045c-3.9,0-7.063,3.16-7.063,7.063v268.523c0,3.901,3.162,7.062,7.063,7.062h187.165 c3.9,0,7.062-3.16,7.062-7.062V142.662C392.272,138.76,389.11,135.6,385.209,135.6z M368.348,346.105 c0,3.01-2.439,5.45-5.451,5.45h-142.54c-3.011,0-5.45-2.44-5.45-5.45v-11.246c0-3.012,2.439-5.453,5.45-5.453h142.54 c3.012,0,5.451,2.441,5.451,5.453V346.105z M368.348,282.547c0,3.01-2.439,5.451-5.451,5.451h-142.54 c-3.011,0-5.45-2.441-5.45-5.451v-11.248c0-3.008,2.439-5.449,5.45-5.449h142.54c3.012,0,5.451,2.441,5.451,5.449V282.547z M368.348,218.988c0,3.01-2.439,5.451-5.451,5.451h-142.54c-3.011,0-5.45-2.441-5.45-5.451V207.74c0-3.009,2.439-5.45,5.45-5.45 h142.54c3.012,0,5.451,2.441,5.451,5.45V218.988z"></path></g></g></svg>