<!-- icon666.com - MILLIONS vector ICONS FREE --><svg version="1.1" id="Capa_1" xmlns="http://www.w3.org/2000/svg" xmlns:xlink="http://www.w3.org/1999/xlink" x="0px" y="0px" viewBox="0 0 512.001 512.001" style="enable-background:new 0 0 512.001 512.001;" xml:space="preserve"><rect x="125.019" y="344.502" style="" width="187.123" height="17.848" fill="#DDBA76"></rect><path style="" d="M33.23,22.855c-4.256-0.936-6.968-5.118-6.084-9.385l0,0c0.884-4.268,5.035-7.031,9.312-6.198 l438.594,85.334c4.558,0.944,8.296,4.156,9.949,8.782c0.434,1.213,0.667,2.498,0.697,3.786c0.115,4.884-2.195,9.197-6.104,11.732 c-2.971,1.927-6.491,2.598-9.911,1.889L33.23,22.855z" fill="#68594E"></path><path style="" d="M271.302,52.962c-0.714,0.1-1.432,0.17-2.155,0.17h-98.173l90.371,19.864l126.998,2.736 L271.302,52.962z" fill="#3F2E23"></path><g><path style="" d="M229.714,335.43l1.155-64.381c3.36-26.264,25.868-46.07,52.355-46.07 c26.488,0,48.996,19.805,52.356,46.07l1.155,64.381H229.714z" fill="#EFA348"></path><path style="" d="M251.306,279.117l2.679-10.074c3.52-13.238,15.545-22.485,29.24-22.485 c13.694,0,25.718,9.246,29.241,22.485l2.679,10.074H251.306z" fill="#EFA348"></path><polygon style="" points="233.96,300.262 233.96,63.177 119.751,63.177 119.751,297.915 " fill="#EFA348"></polygon><polygon style="" points="233.96,300.262 233.96,63.177 119.751,63.177 119.751,297.915 " fill="#EFA348"></polygon></g><g><path style="" d="M209.343,261.158c7.892-1.304,16.503-1.852,24.617-1.755v-33.238 c-5.38,5.2-9.971,11.295-13.538,18.146c-15.118,0.106-29.505,4.921-41.449,13.741c-12.094-8.92-26.647-13.743-41.891-13.743 c-5.978,0-11.783,0.752-17.332,2.153v39.717c5.07-3.046,10.999-4.802,17.332-4.802c12.724,0,23.824,7.078,29.577,17.502 l12.553,0.258C181.11,281.715,190.585,264.258,209.343,261.158z" fill="#E28929"></path><polygon style="" points="233.96,73.316 233.96,63.177 119.751,63.177 119.751,72.238 " fill="#E28929"></polygon></g><path style="fill: rgb(148, 105, 97);" d="M68.743,284.965c0.054-0.785,0.136-1.629,0.203-2.313c0.272-2.77,0.53-5.384-0.249-7.263 c-0.733-1.769-2.709-3.373-4.8-5.071c-0.629-0.511-1.425-1.16-2.107-1.761l-3.088-2.721c-1.983-1.747-1.983-4.837,0-6.584 l3.088-2.721c0.681-0.601,1.478-1.25,2.108-1.762c2.089-1.697,4.064-3.301,4.799-5.071c0.778-1.878,0.522-4.492,0.249-7.259 c-0.067-0.684-0.149-1.53-0.204-2.316l-0.288-4.156c-0.183-2.657,2.023-4.863,4.68-4.68l4.156,0.288 c0.785,0.054,1.629,0.136,2.313,0.203c1.407,0.138,2.732,0.269,3.976,0.269c1.39,0,2.433-0.165,3.287-0.519 c1.769-0.733,3.373-2.708,5.071-4.799c0.511-0.629,1.16-1.425,1.761-2.107l2.721-3.088c1.747-1.983,4.837-1.983,6.584,0l2.721,3.088 c0.601,0.681,1.25,1.478,1.762,2.108c1.697,2.089,3.301,4.064,5.071,4.799c0.391,0.161,0.86,0.285,1.435,0.376l6.757,1.073v32.737 l-4.74,2.122c-9.824,4.398-18.233,11.964-23.681,21.305l-2.552,4.377l-5.048-0.428c-0.377-0.032-0.763-0.048-1.149-0.048 c-1.244,0-2.57,0.13-3.973,0.268c-0.684,0.067-1.53,0.149-2.316,0.204l-4.156,0.288c-2.657,0.183-4.863-2.023-4.68-4.68 L68.743,284.965z" fill="#C95039"></path><path style="" d="M273.177,317.443l-0.691-7.254c-0.641-6.73-2.568-13.173-5.727-19.151l-3.773-7.139l7.168-3.719 c4.3-2.231,9.106-3.41,13.898-3.41c8.286,0,16.31,3.473,22.012,9.53l3.591,3.815l-2.053,4.82c-2.07,4.86-3.373,9.991-3.874,15.254 l-0.69,7.255h-29.862V317.443z" fill="#EFA348"></path><path style="" d="M332.019,260.091c-7.269-20.697-26.894-34.605-48.841-34.617l-10.626,0.002l2.73-10.105 c2.143-7.932,5.912-15.249,11.202-21.749c9.478-11.647,33.866-21.564,52.656-27.831c3.837-1.28,7.75-1.931,11.631-1.931 c7.777,0,15.053,2.576,21.04,7.449c9.093,7.4,13.482,18.651,12.04,30.87c-2.32,19.671-7.077,45.564-16.554,57.21 c-0.384,0.47-0.777,0.93-1.172,1.387l-2.653,3.069l-4.043-0.321c-1.521-0.121-2.876-0.179-4.145-0.179 c-4.578,0-9.153,0.614-13.595,1.824l-7.197,1.961L332.019,260.091z" fill="#F4F1E6"></path><path style="" d="M327.506,250.547c-5.152-8.522-12.611-15.355-21.573-19.763l-7.272-3.577l3.657-7.231 c4.378-8.659,13.118-14.037,22.809-14.037c14.087,0,25.547,11.46,25.547,25.547c0,8.932-4.523,17.057-12.099,21.735l-6.884,4.25 L327.506,250.547z" fill="#FF7900"></path><path style="" d="M302.517,209.657c9.478-11.647,33.866-21.564,52.656-27.831c3.837-1.28,7.75-1.931,11.631-1.931 c4.995,0,9.782,1.068,14.155,3.12c-2.083-4.479-5.163-8.463-9.149-11.704c-5.987-4.873-13.262-7.449-21.04-7.449 c-3.881,0-7.794,0.649-11.631,1.931c-18.789,6.267-43.177,16.184-52.656,27.831c-5.29,6.501-9.059,13.817-11.202,21.749 l-2.73,10.105l10.626-0.002c3.314,0.002,6.574,0.326,9.749,0.937C295.154,220.389,298.358,214.768,302.517,209.657z" fill="#DBC9B2"></path><path style="" d="M318.352,236.01c4.378-8.659,13.118-14.037,22.809-14.037c2.856,0,5.6,0.478,8.167,1.346 c-3.415-10.093-12.97-17.38-24.2-17.38c-9.691,0-18.43,5.379-22.809,14.037l-3.657,7.231l7.272,3.577 c4.099,2.016,7.863,4.561,11.257,7.522L318.352,236.01z" fill="#FF5B00"></path><g><path style="" d="M83.571,317.443l1.155-9.032c3.36-26.264,25.868-46.07,52.355-46.07 c26.488,0,48.996,19.805,52.356,46.069l1.155,9.032L83.571,317.443L83.571,317.443z" fill="#EFA348"></path><path style="" d="M105.164,317.443l2.679-10.074c3.52-13.238,15.545-22.485,29.24-22.485 c13.694,0,25.718,9.246,29.241,22.485l2.679,10.074H105.164z" fill="#EFA348"></path><path style="" d="M189.317,317.443l2.679-10.074c3.52-13.238,15.545-22.485,29.24-22.485 c13.694,0,25.718,9.246,29.241,22.485l2.679,10.074H189.317z" fill="#EFA348"></path><path style="" d="M301.772,317.443l1.155-9.032c3.36-26.264,25.868-46.07,52.355-46.07 c26.488,0,48.996,19.805,52.356,46.069l1.155,9.032L301.772,317.443L301.772,317.443z" fill="#EFA348"></path><path style="" d="M323.664,317.443l2.679-10.074c3.52-13.238,15.544-22.485,29.24-22.485 c13.694,0,25.718,9.246,29.241,22.485l2.679,10.074H323.664z" fill="#EFA348"></path></g><path style="" d="M174.451,497.016v-39.627h147.07v39.627c0,4.403-3.57,7.972-7.972,7.972H182.423 C178.02,504.987,174.451,501.418,174.451,497.016z" fill="#EFE5AB"></path><path style="" d="M225.007,497.016v-39.627h-50.556v39.627c0,4.403,3.57,7.972,7.972,7.972h50.556 C228.575,504.987,225.007,501.418,225.007,497.016z" fill="#DDBA76"></path><path style="" d="M30.797,62.052c-4.357-0.053-7.86-3.601-7.86-7.958l0,0c0-4.358,3.505-7.905,7.862-7.958 l446.786-5.343c4.655,0,8.966,2.387,11.523,6.583c0.67,1.1,1.16,2.311,1.451,3.566c1.102,4.76-0.286,9.45-3.6,12.725 c-2.52,2.489-5.83,3.86-9.322,3.86L30.797,62.052z" fill="#68594E"></path><path style="" d="M224.73,479.741c-74.187,0-134.574-60.221-134.846-134.346h-7.803 c-7.983,0-14.477-6.494-14.477-14.477c0-7.983,6.494-14.477,14.477-14.477h331.809c7.983,0,14.477,6.494,14.477,14.477 c0,7.983-6.494,14.477-14.477,14.477h-7.803c-0.272,74.124-60.659,134.346-134.846,134.346H224.73z" fill="#FCF7C5"></path><path style="" d="M299.153,345.395H137.835h-7.803c-7.983,0-14.477-6.494-14.477-14.477 c0-7.983,6.494-14.477,14.477-14.477H82.081c-7.983,0-14.477,6.494-14.477,14.477c0,7.983,6.494,14.477,14.477,14.477h7.803 c0.273,74.124,60.659,134.346,134.846,134.346h46.51c0.24,0,0.48-0.008,0.72-0.009c-68.192-0.36-124.565-51.592-133.027-117.603 h160.219c4.621,0,8.367-3.746,8.367-8.367C307.52,349.141,303.774,345.395,299.153,345.395z" fill="#F4DE9F"></path><path style="" d="M486.959,63.669c2.561-2.531,3.965-5.908,3.965-9.507H22.94c0.036,4.326,3.522,7.837,7.857,7.89 l446.839,5.477C481.13,67.528,484.44,66.158,486.959,63.669z" fill="#5B4A3F"></path><path d="M476.154,84.982l-58.086-11.17l59.248,0.726c0.086,0.001,0.171,0.001,0.256,0.001c5.395,0,10.469-2.083,14.315-5.882 c3.905-3.859,6.057-9.008,6.057-14.498s-2.151-10.64-6.057-14.498c-3.906-3.859-9.077-5.953-14.572-5.88l-251.449,3.083 c-0.094-0.022-0.185-0.05-0.281-0.069L35.63,0.267c-7.96-1.531-15.759,3.684-17.387,11.624c-1.628,7.941,3.49,15.803,11.41,17.528 l42.811,9.326l-43.71,0.536c-8.104,0.099-14.698,6.774-14.698,14.879s6.594,14.78,14.698,14.879l83.983,1.03v151.999 c-2.846-3.5-6.731-8.114-13.024-8.114c-6.434,0-10.354,4.827-13.217,8.351c-0.719,0.886-1.765,2.173-2.373,2.711 c-0.849,0.074-2.616-0.1-3.828-0.219c-4.439-0.437-10.515-1.034-14.938,3.388c-4.423,4.423-3.825,10.5-3.388,14.939 c0.119,1.212,0.293,2.98,0.219,3.828c-0.538,0.608-1.825,1.654-2.712,2.374c-3.524,2.862-8.351,6.783-8.351,13.217 c0,6.434,4.827,10.354,8.351,13.217c0.886,0.719,2.173,1.765,2.711,2.373c0.074,0.849-0.1,2.616-0.219,3.828 c-0.437,4.438-1.035,10.515,3.388,14.938c4.052,4.052,9.49,3.889,13.788,3.497c-0.786,3.091-1.346,6.271-1.63,9.53 c-9.661,2.101-16.922,10.709-16.922,20.99c0,11.85,9.64,21.489,21.489,21.489h0.986c2.865,54.623,36.775,101.155,84.371,122.25 v24.02c0,7.346,5.976,13.322,13.322,13.322H315.21c7.346,0,13.322-5.976,13.322-13.322v-24.02 c47.595-21.097,81.505-67.628,84.371-122.25h0.986c11.85,0,21.489-9.641,21.489-21.489c0-11.537-9.145-20.952-20.563-21.442 c-2.191-23.213-17.706-42.593-38.79-50.419c6.764-11.336,11.73-30.139,14.788-56.055c1.703-14.435-3.747-28.316-14.578-37.131 c-10.831-8.815-25.53-11.33-39.318-6.731c-28.612,9.545-47.411,19.657-55.874,30.056c-7.265,8.926-12.008,19.355-13.866,30.403 c-9.984,2.735-18.982,8.003-26.206,15.193V75.456l226.994,49.451c1.459,0.318,2.926,0.475,4.383,0.475 c3.901,0,7.722-1.127,11.072-3.307c4.602-2.995,7.743-7.607,8.847-12.986c1.104-5.379,0.03-10.855-3.023-15.42 C486.195,89.104,481.545,86.019,476.154,84.982z M44.589,17.293L151.13,37.782l-11.828,0.145L44.589,17.293z M137.082,270.357 c22.758,0,41.59,17.067,44.405,39.072h-7.575c-2.756-17.849-18.222-31.558-36.831-31.558s-34.073,13.709-36.831,31.558h-7.575 C95.492,287.424,114.325,270.357,137.082,270.357z M127.765,256.067V71.192h13.024v184.264c-1.227-0.075-2.461-0.127-3.707-0.127 C133.912,255.33,130.803,255.59,127.765,256.067z M155.817,258.355V72.194h13.525v192.628 C165.159,262.13,160.623,259.947,155.817,258.355z M158.576,309.429h-7.921c-2.235-5.293-7.478-9.017-13.574-9.017 c-6.096,0-11.339,3.724-13.574,9.017h-7.921c2.528-9.505,11.205-16.53,21.493-16.53 C147.371,292.898,156.048,299.923,158.576,309.429z M78.823,285.334c-0.616,0.061-1.377,0.135-2.084,0.184 c0.049-0.708,0.124-1.468,0.184-2.084c0.341-3.459,0.726-7.381-0.823-11.116c-1.51-3.642-4.506-6.075-7.15-8.223 c-0.556-0.452-1.259-1.023-1.86-1.553c0.601-0.53,1.304-1.101,1.86-1.553c2.644-2.147,5.639-4.581,7.15-8.223 c1.549-3.735,1.163-7.656,0.823-11.114c-0.061-0.616-0.135-1.377-0.184-2.084c0.708,0.049,1.468,0.124,2.084,0.184 c3.46,0.341,7.38,0.726,11.116-0.823c3.642-1.51,6.075-4.506,8.223-7.15c0.452-0.556,1.023-1.259,1.553-1.86 c0.53,0.601,1.101,1.304,1.553,1.86c2.147,2.644,4.581,5.639,8.223,7.15c1.073,0.445,2.16,0.715,3.248,0.889v20.701 c-11.476,5.137-21.038,13.793-27.33,24.583c-0.611-0.051-1.221-0.076-1.826-0.076C81.943,285.026,80.338,285.184,78.823,285.334z M313.505,496.973h-131.04v-16.658c13.355,4.178,27.551,6.439,42.266,6.439h46.51c14.715,0,28.909-2.261,42.266-6.439 L313.505,496.973L313.505,496.973z M420.351,330.918c0,3.564-2.898,6.462-6.462,6.462h-8.303c-4.15,0-7.514,3.364-7.514,7.514 c0,69.935-56.896,126.833-126.833,126.833h-46.51c-67.413,0-122.701-52.868-126.603-119.319h115.596c4.15,0,7.514-3.364,7.514-7.514 c0-4.15-3.364-7.514-7.514-7.514H82.081c-3.564,0-6.462-2.899-6.462-6.462c0-3.563,2.898-6.462,6.462-6.462h331.809 C417.453,324.456,420.351,327.355,420.351,330.918z M212.922,147.661V71.298l9.499,0.116l3.524,0.767v183.382 c-1.654-0.14-3.32-0.234-5.009-0.234c-2.704,0-5.378,0.193-8.015,0.546v-60.914c0-3.999-3.311-7.158-7.309-7.064 c-0.117,0.003-0.235,0.004-0.353,0.004c-0.027,0-0.054,0-0.08,0c-3.989-0.019-7.284,3.08-7.284,7.07v64.955 c-4.824,2.012-9.365,4.666-13.525,7.889V72.194h13.525v75.466c0,4.074,3.313,7.343,7.388,7.349c0.064,0,0.127,0,0.191,0.001 C209.571,155.032,212.922,151.759,212.922,147.661z M199.442,309.429c2.528-9.505,11.205-16.53,21.494-16.53 c10.29,0,18.967,7.025,21.494,16.53h-7.921c-2.235-5.293-7.478-9.017-13.574-9.017c-6.096,0-11.339,3.724-13.574,9.017H199.442z M284.052,284.784c6.176,0,12,2.574,16.177,7.01c-2.345,5.506-3.888,11.433-4.479,17.635h-15.285 c-0.755-7.929-3.065-15.409-6.619-22.136C276.98,285.667,280.47,284.784,284.052,284.784z M265.143,274.925 c-1.098-1.206-2.261-2.349-3.453-3.462c2.562-9.577,11.224-16.433,21.459-16.433c12.001,0,21.807,9.557,22.221,21.459 c-6.169-4.318-13.576-6.732-21.319-6.732C277.355,269.756,270.838,271.564,265.143,274.925z M333.788,309.429 c2.528-9.505,11.205-16.53,21.494-16.53s18.966,7.025,21.493,16.53h-7.921c-2.235-5.293-7.478-9.017-13.574-9.017 s-11.339,3.724-13.574,9.017H333.788z M399.687,309.429h-7.575c-2.756-17.849-18.221-31.558-36.831-31.558 s-34.074,13.709-36.831,31.558h-7.575c2.815-22.004,21.648-39.072,44.405-39.072S396.872,287.424,399.687,309.429z M334.364,246.401 c-5.951-9.843-14.63-17.76-24.894-22.809c2.921-5.778,8.925-9.639,15.656-9.639c9.667,0,17.532,7.865,17.532,17.532 C342.66,237.68,339.45,243.261,334.364,246.401z M292.7,198.682c6.448-7.923,23.841-16.903,48.975-25.287 c9.016-3.009,18.155-1.502,25.076,4.132c6.922,5.633,10.253,14.276,9.14,23.713c-3.105,26.314-8.365,45.169-14.811,53.09 c-0.331,0.407-0.674,0.805-1.019,1.203c-1.578-0.125-3.169-0.204-4.778-0.204c-2.948,0-5.844,0.225-8.677,0.643 c6.899-6.042,11.081-14.863,11.081-24.487c0-17.953-14.607-32.56-32.56-32.56c-13.202,0-24.905,8.005-29.94,19.764 c-3.902-0.804-7.929-1.23-12.037-1.23c-0.044,0-0.087,0.002-0.131,0.003C284.848,210.695,288.12,204.31,292.7,198.682z M283.15,232.488c19.478,0,36.554,12.628,42.526,30.716c-2.285,1.307-4.464,2.776-6.546,4.366 c-4.281-15.86-18.785-27.569-35.98-27.569c-15.238,0-28.411,9.067-34.173,22.348c-2.201-1.174-4.477-2.225-6.831-3.121 C249.222,243.049,265.122,232.488,283.15,232.488z M265.342,309.429h-7.575c-2.756-17.849-18.222-31.558-36.831-31.558 c-11.642,0-22.051,5.37-28.891,13.758c-1.07-2.493-2.284-4.908-3.671-7.213c8.452-8.967,20.127-14.06,32.562-14.06 C243.693,270.357,262.527,287.424,265.342,309.429z M40.946,54.161l97.581-1.196c0.007,0,0.013,0.001,0.02,0.001 c0.006,0,0.012-0.002,0.018-0.002L477.5,48.809c1.438-0.023,2.8,0.531,3.826,1.544c1.026,1.014,1.591,2.365,1.591,3.807 c0,1.442-0.565,2.794-1.591,3.807c-1.026,1.013-2.386,1.583-3.826,1.544L40.946,54.161z M477.548,106.07 c-0.29,1.413-1.115,2.624-2.323,3.41c-1.208,0.785-2.65,1.052-4.058,0.743L297.228,72.331l36.222,0.444 c0.3,0.098,0.605,0.184,0.923,0.245l138.942,26.719c1.416,0.271,2.637,1.082,3.438,2.28S477.837,104.657,477.548,106.07z" fill="#000000"></path><path d="M256.101,352.408h73.034c4.15,0,7.514-3.364,7.514-7.514c0-4.15-3.364-7.514-7.514-7.514h-73.034 c-4.15,0-7.514,3.364-7.514,7.514C248.587,349.043,251.951,352.408,256.101,352.408z" fill="#000000"></path></svg>