<!-- icon666.com - MILLIONS vector ICONS FREE --><svg id="Capa_1" enable-background="new 0 0 512 512" viewBox="0 0 512 512" xmlns="http://www.w3.org/2000/svg"><g><g><path d="m346.667 43.185h-27.667l-9.667 186.667h94c35.841 0 65-29.159 65-65.001 0-67.087-54.579-121.666-121.666-121.666z" fill="#fc4f50"></path><path d="m165.333 43.185c-67.087 0-121.666 54.58-121.666 121.667 0 35.841 29.159 65 65 65h94l-9.667-186.667z" fill="#fc6d5a"></path></g><g><path d="m409.742 313.185c13.053-11.897 21.258-29.026 21.258-48.037v-81.333c0-35.841-29.159-65-65-65h-56.667v194.37z" fill="#e6e6e6"></path><path d="m102.258 313.185h100.409v-194.37h-56.667c-35.841 0-65 29.159-65 65v81.333c0 19.011 8.205 36.14 21.258 48.037z" fill="#f0f0f0"></path></g><g><path d="m319 313.185v-270h-63l-10.667 153.666 9.31 116.334z" fill="#474f54"></path><path d="m193 43.185h63v270h-63z" fill="#676e74"></path></g><g><path d="m27.667 385.482h104.667v83.334h-104.667z" fill="#d39d40"></path><path d="m379.667 385.482h104.667v83.334h-104.667z" fill="#c58d2c"></path><g><path d="m512 300.148h-256l-10.667 56.704 10.667 47.963h256z" fill="#dbad5c"></path><path d="m0 300.148h256v104.667h-256z" fill="#edc472"></path></g></g></g></svg>