<!-- icon666.com - MILLIONS vector ICONS FREE --><svg fill="none" viewBox="0 0 24 24" xmlns="http://www.w3.org/2000/svg"><g fill="rgb(0,0,0)"><path d="m3 15c0-.5523.44772-1 1-1h2c.55229 0 1 .4477 1 1s-.44771 1-1 1h-2c-.55228 0-1-.4477-1-1z"></path><path clip-rule="evenodd" d="m0 7c0-1.65685 1.34315-3 3-3h18c1.6569 0 3 1.34315 3 3v10c0 1.6569-1.3431 3-3 3h-18c-1.65686 0-3-1.3431-3-3zm3-1c-.55228 0-1 .44772-1 1v2h16c.5523 0 1 .44772 1 1 0 .5523-.4477 1-1 1h-16v6c0 .5523.44772 1 1 1h18c.5523 0 1-.4477 1-1v-10c0-.55229-.4477-1-1-1z" fill-rule="evenodd"></path></g></svg>