<!-- icon666.com - MILLIONS vector ICONS FREE --><svg viewBox="0 -67 512 512" xmlns="http://www.w3.org/2000/svg"><path d="m44.769531 166.316406c-2.382812 0-4.734375-1.097656-6.246093-3.167968-2.515626-3.445313-1.765626-8.28125 1.679687-10.796876l203.078125-148.183593c7.609375-5.558594 17.828125-5.558594 25.4375 0l201.253906 147.027343c3.445313 2.519532 4.199219 7.355469 1.679688 10.796876-2.515625 3.445312-7.351563 4.195312-10.796875 1.683593l-201.253907-147.03125c-2.15625-1.570312-5.046874-1.574219-7.199218 0l-203.082032 148.183594c-1.375 1.003906-2.972656 1.488281-4.550781 1.488281zm0 0" fill="#5c5c5c"></path><path d="m492.792969 148.5h-473.585938c-10.609375 0-19.207031 8.601562-19.207031 19.207031v191.914063c0 10.605468 8.597656 19.207031 19.207031 19.207031h473.585938c10.605469 0 19.207031-8.601563 19.207031-19.207031v-191.914063c0-10.605469-8.597656-19.207031-19.207031-19.207031zm0 0" fill="#f94530"></path><path d="m492.792969 148.5h-49.449219c10.609375 0 19.207031 8.601562 19.207031 19.207031v191.914063c0 10.605468-8.597656 19.207031-19.207031 19.207031h49.449219c10.609375 0 19.207031-8.601563 19.207031-19.207031v-191.914063c0-10.605469-8.597656-19.207031-19.207031-19.207031zm0 0" fill="#db3d2a"></path><path d="m0 190.523438h512v146.285156h-512zm0 0" fill="#eeedee"></path><path d="m462.550781 190.523438h49.449219v146.285156h-49.449219zm0 0" fill="#d6d5d6"></path><path d="m275.9375 30.144531c0 11.011719-8.925781 19.9375-19.9375 19.9375s-19.9375-8.925781-19.9375-19.9375 8.925781-19.9375 19.9375-19.9375 19.9375 8.925781 19.9375 19.9375zm0 0" fill="#bdbdbd"></path><g fill="#f94530"><path d="m82.347656 242.039062h22.304688c4.269531 0 7.726562-3.460937 7.726562-7.726562 0-4.269531-3.457031-7.726562-7.726562-7.726562h-22.304688c-10.128906 0-18.371094 8.242187-18.371094 18.371093v37.429688c0 10.132812 8.242188 18.371093 18.371094 18.371093h22.304688c4.269531 0 7.726562-3.457031 7.726562-7.726562 0-4.265625-3.457031-7.722656-7.726562-7.722656h-22.304688c-1.609375 0-2.917968-1.3125-2.917968-2.917969v-37.433594c0-1.609375 1.308593-2.917969 2.917968-2.917969zm0 0"></path><path d="m231.460938 226.585938h-22.308594c-10.128906 0-18.371094 8.242187-18.371094 18.371093v37.429688c0 10.132812 8.242188 18.371093 18.371094 18.371093h22.308594c10.128906 0 18.371093-8.238281 18.371093-18.371093v-37.429688c0-10.128906-8.242187-18.371093-18.371093-18.371093zm2.917968 55.800781c0 1.609375-1.3125 2.917969-2.921875 2.917969h-22.304687c-1.609375 0-2.917969-1.308594-2.917969-2.917969v-37.429688c0-1.609375 1.308594-2.917969 2.917969-2.917969h22.304687c1.609375 0 2.921875 1.308594 2.921875 2.917969zm0 0"></path><path d="m420.386719 226.585938h-19.667969c-6.476562 0-11.742188 5.269531-11.742188 11.746093v50.683594c0 6.472656 5.265626 11.742187 11.742188 11.742187h19.667969c15.238281 0 27.636719-12.398437 27.636719-27.636718v-18.902344c0-15.234375-12.398438-27.632812-27.636719-27.632812zm12.183593 46.539062c0 6.714844-5.464843 12.179688-12.183593 12.179688h-15.960938v-43.265626h15.960938c6.71875 0 12.183593 5.464844 12.183593 12.179688zm0 0"></path><path d="m171.8125 285.304688c-26.441406-.3125-27.414062.675781-27.414062-.722657v-50.269531c0-4.269531-3.460938-7.726562-7.726563-7.726562-4.269531 0-7.726563 3.457031-7.726563 7.726562v50.269531c0 8.917969 7.257813 16.175781 16.175782 16.175781h26.691406c4.269531 0 7.726562-3.457031 7.726562-7.726562 0-4.265625-3.457031-7.726562-7.726562-7.726562zm0 0"></path><path d="m344.28125 242.039062h25.503906c4.269532 0 7.726563-3.460937 7.726563-7.726562 0-4.269531-3.460938-7.726562-7.726563-7.726562h-25.503906c-9.332031 0-16.921875 7.589843-16.921875 16.921874v40.332032c0 9.328125 7.589844 16.921875 16.921875 16.921875h25.503906c4.269532 0 7.726563-3.460938 7.726563-7.726563 0-4.269531-3.460938-7.726562-7.726563-7.726562h-25.503906c-.808594 0-1.46875-.660156-1.46875-1.46875v-11.550782h26.972656c4.269532 0 7.726563-3.457031 7.726563-7.722656 0-4.269531-3.460938-7.726562-7.726563-7.726562h-26.972656v-13.332032c0-.8125.660156-1.46875 1.46875-1.46875zm0 0"></path><path d="m308.167969 242.039062c4.269531 0 7.726562-3.460937 7.726562-7.726562 0-4.269531-3.457031-7.726562-7.726562-7.726562h-35.019531c-8.988282 0-16.300782 7.3125-16.300782 16.304687v12.207031c0 8.988282 7.3125 16.300782 16.300782 16.300782 25.8125.363281 27.292968-.785157 27.292968.851562-.324218 11.132812.714844 13.054688-.847656 13.054688h-35.019531c-4.269531 0-7.726563 3.460937-7.726563 7.726562 0 4.269531 3.460938 7.726562 7.726563 7.726562h35.019531c8.988281 0 16.300781-7.3125 16.300781-16.304687v-12.207031c0-8.988282-7.3125-16.300782-16.300781-16.300782-25.8125-.363281-27.292969.785157-27.292969-.851562v-12.207031c0-1.640625.847657-.476563 35.867188-.847657zm0 0"></path></g></svg>